<?xml version="1.0" encoding="UTF-8"?>
<svg id="Layer_2" data-name="Layer 2" xmlns="http://www.w3.org/2000/svg" viewBox="0 0 99 99">
  <defs>
    <style>
      .cls-1 {
        fill: #f15b22;
      }

      .cls-1, .cls-2 {
        stroke-width: 0px;
      }

      .cls-2 {
        fill: #fff;
      }
    </style>
  </defs>
  <g id="Layer_1-2" data-name="Layer 1">
    <g>
      <circle class="cls-1" cx="49.5" cy="49.5" r="49.5"/>
      <circle class="cls-2" cx="49.5" cy="49.5" r="45.39"/>
      <path class="cls-1" d="M65.44,55.93c1.7-.84,3.26-1.82,4.68-2.92,1.57-1.23,2.95-2.69,4.07-4.34,1.12-1.66,1.99-3.61,2.6-5.8.6-2.17.9-4.69.9-7.48,0-3.59-.65-6.8-1.93-9.55-1.29-2.74-3.17-5.08-5.59-6.94-2.39-1.84-5.33-3.26-8.71-4.2-3.36-.94-7.17-1.42-11.31-1.42h-28.63v72.44h18.31v-25.18h8.4l12.59,25.18h19.33v-1.44l-14.69-28.35ZM38.7,26.55h11.44c3.37,0,5.98.94,7.75,2.8,1.77,1.84,2.65,4.41,2.65,7.61s-.89,5.74-2.63,7.57c-1.75,1.82-4.36,2.74-7.77,2.74h-11.44v-20.72Z"/>
    </g>
  </g>
</svg>